<?xml version="1.0" encoding="utf-8"?>
<!-- Generator: Adobe Illustrator 25.2.1, SVG Export Plug-In . SVG Version: 6.00 Build 0)  -->
<svg version="1.1" id="Layer_1" xmlns="http://www.w3.org/2000/svg" xmlns:xlink="http://www.w3.org/1999/xlink" x="0px" y="0px"
	 viewBox="0 0 216 144" style="enable-background:new 0 0 216 144;" xml:space="preserve">
<style type="text/css">
	.st0{fill:none;stroke:#000000;stroke-width:0.9;stroke-miterlimit:10;}
	.st1{fill:#FFF3E3;}
	.st2{fill:#FFF5E6;}
	.st3{fill:#E5514C;}
	.st4{fill:#E3534C;}
	.st5{fill:#A4CB8C;stroke:#000000;stroke-width:1.35;stroke-miterlimit:10;}
	.st6{fill:none;stroke:#000000;stroke-width:1.35;stroke-miterlimit:10;}
	.st7{fill:#A4CB8C;}
	.st8{fill:none;}
</style>
<g>
	<g id="Boarder_5_">
		<path class="st0" d="M34.88,62.1c0,17.32,0,34.64,0,51.96c0.74,0.08,1.66,0.22,2.69,0.48c0.42,0.11,1.7,0.44,3.09,1.06
			c3.37,1.5,5.08,3.65,5.42,4.1c1.14,1.49,1.6,2.91,1.78,3.91c3.29,0,6.57,0,9.86,0c8.67,3.64,25.11,9.4,47.18,10.45
			c30.19,1.45,52.75-6.77,61.6-10.45c2.93,0,5.85,0,8.78,0c0.09-0.5,0.26-1.18,0.61-1.95c0.77-1.72,1.96-2.94,2.76-3.64
			c0.88-0.77,2.62-2.09,5.4-3.03c1.79-0.6,3.4-0.85,4.52-0.96c0-17.4,0-34.8,0-52.19c-0.81-0.09-1.73-0.24-2.72-0.49
			c-1.12-0.28-3.22-0.92-5.28-2.26c-1.14-0.74-3.34-2.16-4.19-4.52c-0.21-0.59-0.29-1.09-0.32-1.44c-2.92,0-5.84,0-8.75,0
			c-9.02-3.76-24.96-9.2-45.98-10.38c-6.48-0.36-19.02-0.63-33.77,1.97c-11.38,2.01-20.23,5.06-25.17,6.96
			c-1.5,0.58-2.73,1.08-3.59,1.45c-3.26,0.01-6.54,0.01-9.83,0c-0.33,0-0.65,0-0.98,0c-0.11,0.31-0.28,0.74-0.54,1.25
			c-0.5,0.97-2.02,3.8-6,5.82C39,61.43,36.53,61.91,34.88,62.1z"/>
		<path class="st0" d="M38.79,64.32c0,15.87,0,31.75,0,47.62c0.7,0.08,1.58,0.21,2.56,0.44c0.4,0.1,1.62,0.4,2.94,0.97
			c3.21,1.38,4.83,3.35,5.16,3.76c1.09,1.37,1.52,2.66,1.7,3.58c3.13,0,6.26,0,9.39,0c8.26,3.33,23.91,8.61,44.92,9.58
			c28.75,1.33,50.23-6.21,58.66-9.58c2.79,0,5.57,0,8.36,0c0.09-0.46,0.25-1.08,0.58-1.79c0.73-1.57,1.87-2.7,2.63-3.34
			c0.84-0.71,2.5-1.92,5.14-2.78c1.7-0.55,3.24-0.78,4.31-0.88c0-15.94,0-31.89,0-47.83c-0.77-0.08-1.65-0.22-2.59-0.45
			c-1.07-0.26-3.07-0.84-5.03-2.07c-1.08-0.68-3.18-1.98-3.99-4.14c-0.2-0.54-0.27-1-0.3-1.32c-2.78,0-5.56,0-8.34,0
			c-8.59-3.44-23.77-8.43-43.78-9.51C114.95,46.25,103,46,88.96,48.39C78.13,50.24,69.7,53.03,65,54.77
			c-1.42,0.53-2.6,0.99-3.42,1.33c-3.11,0.01-6.23,0.01-9.36,0c-0.31,0-0.62,0-0.93,0c-0.1,0.28-0.27,0.68-0.52,1.15
			c-0.48,0.89-1.92,3.48-5.72,5.33C42.71,63.71,40.36,64.14,38.79,64.32z"/>
	</g>
	<g>
		<g>
			<path d="M44.52,75.96h2.38c1.93,0,2.86,0.91,2.86,2.87v0.74c0,1.82-0.58,3.16-2.95,3.16h-0.9v5.34h-1.38V75.96z M45.9,81.64h0.77
				c1.48,0,1.69-0.84,1.69-2.1v-0.65c0-0.98-0.23-1.84-1.57-1.84H45.9V81.64z"/>
			<path d="M52.95,75.96v12.1h-1.38v-12.1H52.95z"/>
			<path d="M60.31,84.59V85c0,1.54-0.3,3.22-2.65,3.22c-2.25,0-2.64-1.49-2.64-3.26V78.8c0-1.94,0.89-3,2.66-3
				c2.18,0,2.58,1.44,2.58,3.03v0.47h-1.41v-0.57c0-0.96-0.16-1.75-1.19-1.75c-0.98,0-1.22,0.72-1.22,1.79v6.28
				c0,1.21,0.29,2.01,1.26,2.01c1.02,0,1.2-0.82,1.2-1.96v-0.51H60.31z"/>
			<path d="M62.07,75.96h1.37v5.84h0.02c0.54-1.13,1.94-4.05,2.79-5.84h1.52l-2.49,4.8l2.71,7.3h-1.51l-2.13-5.95l-0.91,1.69v4.26
				h-1.37V75.96z"/>
			<path d="M69.11,75.96h1.38V86.9h3.27l-0.15,1.16h-4.5V75.96z"/>
			<path d="M79.43,82.2h-2.92v4.67h3.31l-0.19,1.18h-4.51v-12.1h4.47v1.19h-3.08v3.86h2.92V82.2z"/>
			<path d="M89.44,84.59V85c0,1.54-0.3,3.22-2.65,3.22c-2.25,0-2.64-1.49-2.64-3.26V78.8c0-1.94,0.89-3,2.66-3
				c2.18,0,2.58,1.44,2.58,3.03v0.47h-1.41v-0.57c0-0.96-0.16-1.75-1.19-1.75c-0.98,0-1.22,0.72-1.22,1.79v6.28
				c0,1.21,0.29,2.01,1.26,2.01c1.02,0,1.2-0.82,1.2-1.96v-0.51H89.44z"/>
			<path d="M92.59,82.41v5.65h-1.38v-12.1h2.27c1.96,0,2.92,0.78,2.92,2.79v0.55c0,1.64-0.62,2.32-1.33,2.55
				c0.83,0.29,1.21,0.86,1.21,2.48c0,1.03-0.02,2.97,0.13,3.73h-1.35c-0.17-0.75-0.14-2.79-0.14-3.64c0-1.57-0.24-2.01-1.53-2.01
				H92.59z M92.59,81.31h0.85c1.24,0,1.56-0.67,1.56-1.96v-0.54c0-1.1-0.32-1.77-1.63-1.77h-0.78V81.31z"/>
			<path d="M102.67,82.2h-2.92v4.67h3.31l-0.19,1.18h-4.51v-12.1h4.47v1.19h-3.09v3.86h2.92V82.2z"/>
			<path d="M108.93,82.2h-2.92v4.67h3.31l-0.19,1.18h-4.51v-12.1h4.47v1.19h-3.09v3.86h2.92V82.2z"/>
			<path d="M110.89,75.96h1.37v5.84h0.02c0.54-1.13,1.95-4.05,2.79-5.84h1.52l-2.49,4.8l2.71,7.3h-1.51l-2.13-5.95l-0.91,1.69v4.26
				h-1.37V75.96z"/>
			<path d="M120.98,75.96h2.38c1.93,0,2.86,0.91,2.86,2.87v0.74c0,1.82-0.58,3.16-2.95,3.16h-0.9v5.34h-1.38V75.96z M122.37,81.64
				h0.77c1.48,0,1.69-0.84,1.69-2.1v-0.65c0-0.98-0.23-1.84-1.57-1.84h-0.89V81.64z"/>
			<path d="M132.33,82.2h-2.92v4.67h3.31l-0.19,1.18h-4.51v-12.1h4.47v1.19h-3.09v3.86h2.92V82.2z"/>
			<path d="M134.29,75.96h2.38c1.93,0,2.86,0.91,2.86,2.87v0.74c0,1.82-0.58,3.16-2.95,3.16h-0.9v5.34h-1.38V75.96z M135.68,81.64
				h0.77c1.48,0,1.69-0.84,1.69-2.1v-0.65c0-0.98-0.23-1.84-1.57-1.84h-0.89V81.64z"/>
			<path d="M141.35,75.96h2.38c1.93,0,2.86,0.91,2.86,2.87v0.74c0,1.82-0.58,3.16-2.95,3.16h-0.9v5.34h-1.38V75.96z M142.73,81.64
				h0.77c1.48,0,1.69-0.84,1.69-2.1v-0.65c0-0.98-0.23-1.84-1.57-1.84h-0.89V81.64z"/>
			<path d="M152.7,82.2h-2.92v4.67h3.31l-0.19,1.18h-4.51v-12.1h4.47v1.19h-3.09v3.86h2.92V82.2z"/>
			<path d="M156.04,82.41v5.65h-1.38v-12.1h2.27c1.96,0,2.92,0.78,2.92,2.79v0.55c0,1.64-0.62,2.32-1.33,2.55
				c0.83,0.29,1.21,0.86,1.21,2.48c0,1.03-0.02,2.97,0.13,3.73h-1.35c-0.17-0.75-0.14-2.79-0.14-3.64c0-1.57-0.24-2.01-1.53-2.01
				H156.04z M156.04,81.31h0.85c1.24,0,1.56-0.67,1.56-1.96v-0.54c0-1.1-0.32-1.77-1.63-1.77h-0.78V81.31z"/>
			<path d="M169.88,84.59V85c0,1.54-0.3,3.22-2.65,3.22c-2.25,0-2.64-1.49-2.64-3.26V78.8c0-1.94,0.89-3,2.66-3
				c2.18,0,2.58,1.44,2.58,3.03v0.47h-1.41v-0.57c0-0.96-0.16-1.75-1.19-1.75c-0.98,0-1.22,0.72-1.22,1.79v6.28
				c0,1.21,0.29,2.01,1.26,2.01c1.02,0,1.2-0.82,1.2-1.96v-0.51H169.88z"/>
			<path d="M176.99,78.93v6.1c0,2.12-0.94,3.19-2.88,3.19c-2.02,0-2.75-1.19-2.75-3.17v-6.11c0-2.05,1.01-3.13,2.85-3.13
				C176.13,75.8,176.99,77.02,176.99,78.93z M172.77,78.87v6.28c0,1.36,0.53,1.9,1.41,1.9c0.92,0,1.4-0.53,1.4-1.96v-6.22
				c0-1.28-0.47-1.9-1.41-1.9C173.22,76.97,172.77,77.55,172.77,78.87z"/>
			<path d="M178.73,88.06v-2.5h1.38v2.5H178.73z"/>
		</g>
	</g>
	<polygon class="st1" points="77.25,44.62 79.81,45.41 85.48,44.05 85.64,43.06 	"/>
	<g>
		<path d="M34.91,81.94c0,5.53,0,11.07,0,16.6c0,5.17-0.01,10.35-0.02,15.53c0.48,0.05,1.12,0.13,1.85,0.28
			c1.54,0.31,2.78,0.76,3.66,1.13c0.82,0.35,2.11,0.9,3.54,1.98c0.86,0.65,1.89,1.42,2.74,2.78c0.82,1.29,1.11,2.51,1.22,3.29
			c1.19,0,2.39,0,3.6,0c2.07,0.01,4.12,0.03,6.16,0.06c0.48,0.17,1.25,0.45,2.19,0.79c4.09,1.49,5.02,1.9,7.07,2.61
			c1.78,0.61,3.05,0.97,5.18,1.59c2.9,0.83,5.16,1.39,6.89,1.81c1.85,0.45,3.1,0.76,4.88,1.13c1.42,0.3,3.75,0.76,6.65,1.19
			c3.29,0.49,5.76,0.71,7.93,0.91c3.99,0.35,7.02,0.48,7.86,0.51c4.29,0.16,7.55,0.1,9.63,0.06c2.27-0.05,4.69-0.1,7.86-0.34
			c4.29-0.33,7.49-0.81,9.94-1.19c3.62-0.56,7.76-1.2,12.99-2.55c3.55-0.92,7-2.09,13.9-4.42c2.49-0.84,4.53-1.55,5.91-2.04
			c2.89-0.04,5.77-0.08,8.66-0.11c0.13-0.39,0.32-0.92,0.61-1.53c0.22-0.46,0.9-1.88,2.07-3.17c1.34-1.48,2.8-2.22,4.15-2.89
			c1.35-0.67,3.55-1.57,6.52-1.98c0.02-1.11,0.04-2.79,0.06-4.82c0.1-10.42-0.06-18.03-0.12-21.3c-0.1-5.9-0.16-14.55,0.06-26.06
			c-0.43-0.07-1.04-0.18-1.77-0.34c-0.95-0.2-1.98-0.43-3.05-0.79c-0.63-0.21-1.86-0.64-3.23-1.53c-0.75-0.49-2.1-1.38-3.23-3
			c-0.79-1.14-1.19-2.24-1.4-3.06c-2.91,0-5.81,0-8.72,0c-0.89-0.45-2.18-1.08-3.78-1.76c-3.96-1.67-7.15-2.48-11.28-3.46
			c-7.82-1.85-11.73-2.77-15.97-3.46c-7.12-1.15-12.52-1.51-13.66-1.59c-1.49-0.1-7.36-0.45-15.18-0.11
			c-5.64,0.24-13.23,0.88-22.01,2.55c-3.1,0.59-7.99,1.53-14.27,3.46c-4.95,1.52-9.12,3.13-12.38,4.53
			c-3.52-0.02-7.03-0.04-10.55-0.06c-0.16,0.34-0.4,0.81-0.73,1.36c-0.55,0.92-1.62,2.66-3.66,4.25c-2.43,1.9-4.92,2.54-6.1,2.83
			c-1.08,0.27-2.01,0.39-2.68,0.45c-0.07,3.1-0.11,6.26-0.12,9.46c-0.01,3.2,0.01,6.36,0.06,9.46c1.3,0.02,2.6,0.04,3.9,0.06
			c0-1.01,0.01-2.64,0-4.65c-0.01-3.17-0.04-4.38-0.03-6.71c0-1.24,0.01-3.09,0.06-5.38c0.49-0.05,1.19-0.14,2.01-0.31
			c1.16-0.24,2.85-0.6,4.66-1.61c1.56-0.87,2.52-1.83,3.14-2.46c1.33-1.36,2.18-2.72,2.71-3.77c3.39,0,6.79,0,10.18,0
			c0.79-0.29,1.97-0.73,3.41-1.25c2.85-1.03,5.73-2.02,7.16-2.49c5.72-1.88,11.52-3.06,14.27-3.57c5.04-0.93,8.84-1.3,12.28-1.61
			c4.11-0.38,10.31-0.94,18.5-0.71c2.12,0.06,8.81,0.29,17.47,1.59c6.41,0.96,11.26,2.1,13.2,2.58c4.81,1.18,10.65,2.88,17.13,5.38
			c2.71,0.03,5.43,0.06,8.14,0.08c0.03,0.2,0.08,0.49,0.18,0.82c0.1,0.32,0.36,1.08,1.1,2.01c0.18,0.23,0.98,1.22,2.71,2.35
			c0.46,0.3,2.06,1.31,4.48,2.07c1.37,0.43,2.59,0.65,3.54,0.76c0,1.9,0,3.8,0,5.69c0,7.1,0,14.2,0,21.3c0,5.22,0,10.44,0,15.67
			c0,1.71,0,3.42,0,5.13c-0.3,0.03-0.75,0.09-1.28,0.17c-2.03,0.32-4.32,0.69-6.49,2.1c-1.12,0.73-1.8,1.47-2.53,2.27
			c-1.58,1.73-1.97,2.89-2.07,3.2c-0.14,0.44-0.21,0.82-0.24,1.08c-2.85,0.02-5.69,0.04-8.54,0.06c-1.11,0.43-2.69,1.02-4.6,1.7
			c-3.18,1.12-8.13,2.85-14.33,4.31c-4.27,1-7.51,1.49-10.39,1.93c-8.96,1.34-15.93,1.61-17.86,1.67
			c-11.66,0.38-20.5-0.72-22.56-0.99c-9.32-1.22-16.26-3.16-20.79-4.45c-5.25-1.49-9.64-3.02-12.96-4.28
			c-3.06-0.01-6.12-0.02-9.18-0.03c-0.09-0.28-0.23-0.66-0.43-1.1c-1.12-2.51-2.88-4.01-3.23-4.31c-1.97-1.64-4-2.22-5.76-2.72
			c-1.21-0.34-2.26-0.52-3.02-0.62c-0.02-0.71-0.04-1.42-0.06-2.12c-0.25-9.4-0.24-18.67,0-27.79
			C37.47,81.98,36.19,81.96,34.91,81.94z"/>
		<rect x="34.78" y="80.47" width="3.97" height="2.72"/>
	</g>
	<polygon class="st2" points="71.61,39 71.15,37.04 71.38,34.7 71.79,33.91 72.8,34.15 73.11,35.12 73.49,37.81 74.17,39.34 
		75.4,41.42 77.43,42.6 78.98,43.06 79.7,43.22 81.2,41.89 82.77,41.25 84.73,41.14 85.89,41.47 86.16,42.78 85.97,44.86 85,46.9 
		84.14,47.96 81.23,47.49 80.14,46.37 78.66,45.71 74.49,43.5 72.16,40.5 	"/>
	<polygon class="st3" points="86.16,41.71 86.38,42.49 86.38,43.64 85.64,45.41 84.73,47.47 84.73,47.71 85.64,47.71 86.74,47.58 
		87.81,47.41 88.87,46.9 89.88,46.11 90.63,45.58 91.41,45.04 92.14,44.82 92.96,44.71 93.78,45.04 94.49,44.71 95.94,43.84 
		97.35,43.22 99.16,42.65 100.6,42.22 99.87,41.42 97.15,38.36 91.18,40.29 	"/>
	<polygon class="st4" points="106.93,34.77 107.34,35.21 109.65,37.38 110.18,37.88 111.77,37.08 115.05,35.47 117.58,34.19 
		119.66,33.22 121.29,32.56 122.68,32.2 124.24,32.07 126.68,31.92 128.63,32.05 129.47,32.3 129.98,31.92 129.98,31.56 
		127.87,30.4 125.63,29.65 123.71,29.33 121.17,29.69 116.99,30.88 	"/>
	<path class="st5" d="M71.34,34.47c0,0-0.33,1.04-0.36,2.14c-0.02,0.91,0.27,3.57,2.35,5.77c0.24,0.25,2.32,2.41,4.85,3.03
		c0.39,0.1,1.45,0.31,2.43,1.11c0.27,0.22,0.91,1,0.91,1l0,0c0,0,0.06,0.16,0.16,0.44c0.72,0.01,1.43,0.02,2.15,0.04
		c0.43-0.44,1.07-1.18,1.55-2.22c0.71-1.51,1.24-3.95,0.24-4.58c-0.23-0.15-0.59-0.13-1.31-0.11c-0.49,0.02-1.38,0.05-2.43,0.48
		c-1.14,0.47-1.86,1.15-2.23,1.55c-0.46-0.02-1.13-0.09-1.87-0.37c-1.36-0.51-2.1-1.4-2.7-2.14c-1.65-2.02-1.9-4.16-1.95-5.03
		c-0.03-0.58,0-1.06,0.04-1.4c-0.54-0.09-1.09-0.17-1.63-0.26C71.49,34.04,71.41,34.23,71.34,34.47z"/>
	<path class="st6" d="M86.21,41.42c0.82-0.23,1.64-0.47,2.47-0.7c2.86-0.82,5.68-1.66,8.47-2.51"/>
	<path class="st6" d="M106.27,34.74c0.49-0.22,1.16-0.51,1.95-0.85c2.17-0.93,3.87-1.58,4.49-1.81c2.58-0.98,4.01-1.52,6.04-2.07
		c2.62-0.71,3.96-1.06,5.73-0.89c1.91,0.19,3.33,0.85,3.78,1.07c1.01,0.5,1.76,1.07,2.27,1.52c-0.32,0.36-0.64,0.71-0.95,1.07
		c-0.28-0.12-0.68-0.28-1.19-0.41c-0.89-0.21-1.61-0.19-2.39-0.15c-1.82,0.1-2.74,0.15-3.58,0.33c-1.31,0.28-2.27,0.72-4.14,1.59
		c-1.55,0.72-2.08,1.06-3.7,1.88c-1.06,0.54-2.6,1.3-4.53,2.14"/>
	<polyline class="st3" points="95.94,44.5 99.03,43.33 100.94,42.78 101.24,42.84 102.38,43.87 101.85,44 	"/>
	<g>
		<path class="st3" d="M95.36,52.8c0.18,0.11,0.47,0.25,0.84,0.33c0.67,0.14,1.23-0.01,1.69-0.15c1.28-0.39,1.86-0.73,3.06-1.21
			c0.91-0.36,0.78-0.25,2.12-0.75c1.18-0.44,1.66-0.68,2.64-1.07c0.77-0.31,1.9-0.75,3.33-1.22c-0.79-0.54-1.4-1.01-1.79-1.33
			c-1.19-0.95-1.71-1.51-3.21-2.75c-0.54-0.45-0.98-0.8-1.25-1.01c-0.84,0.13-1.52,0.21-1.96,0.25c-3.12,0.34-4.63,0.21-6.5,1.11
			c-0.19,0.09-0.34,0.17-0.43,0.22c0.22,0.06,0.54,0.16,0.87,0.35c0.8,0.46,1.16,1.12,1.28,1.35c0.34,0.65,0.34,1.2,0.34,2.07
			c0,0.67-0.09,1.58-0.46,2.59C95.73,52.1,95.52,52.51,95.36,52.8z"/>
		<path class="st3" d="M111.38,39.33c0.57-0.18,1.39-0.42,2.37-0.71c1.34-0.4,2.62-0.78,4.31-1.23c2.29-0.61,3.44-0.92,4.06-1.01
			c0.18-0.03,1.39-0.2,2.83-0.58c0.37-0.1,0.82-0.23,1.36-0.5c0.67-0.34,1.09-0.7,1.29-0.87c1.72-1.46,2.02-1.18,4.26-2.94
			c0.03-0.02,0.72-0.57,1.79-0.92c0.77-0.26,1-0.17,1.11-0.07c0.2,0.18,0.12,0.55,0.07,0.73c-0.14,0.61-0.57,1-0.75,1.16
			c-1.42,1.27-2.15,1.8-2.15,1.8c-1.03,0.76-1.55,1.13-2.07,1.55c-0.73,0.59-1.24,1.06-2.14,1.91c-1.22,1.14-1.3,1.29-2.04,1.97
			c-0.97,0.9-1.74,1.5-3.3,2.69c-2.12,1.63-3.11,2.23-3.57,2.49c-0.49,0.28-0.9,0.5-1.19,0.65
			C115.55,43.42,113.47,41.37,111.38,39.33z"/>
	</g>
	<path class="st7" d="M73.79,49.66c0.27-0.63,0.55-1.27,0.82-1.9h1.98l2.68,0.13c2.73,0.11,4.76,0.2,5.99,0.29
		c0.25,0.02,0.8,0.06,1.51-0.03c0.99-0.13,1.7-0.45,1.89-0.54c1.09-0.5,2.13-1.39,2.35-1.57c0.15-0.13,0.37-0.32,0.72-0.46
		c0.53-0.21,1.04-0.17,1.35-0.14c0.85,0.07,1.43,0.4,1.58,0.48c0.22,0.13,0.88,0.54,1.26,1.31c0.2,0.41,0.23,0.74,0.27,1.34
		c0.02,0.29,0.05,0.92-0.1,1.71c-0.12,0.63-0.3,1.08-0.45,1.46c-0.43,1.08-0.8,1.41-1.02,1.58c-0.33,0.25-0.55,0.28-0.61,0.29
		c-0.43,0.05-0.75-0.2-1.27-0.55c0,0-0.64-0.42-1.85-1.04c-0.21-0.11-0.83-0.42-1.55-0.67c-0.99-0.34-1.77-0.42-2.52-0.5
		c-2.21-0.25-3.5-0.39-4.99-0.69c-0.82-0.17-1.66-0.37-3.13-0.61c-0.74-0.12-1.15-0.17-1.63-0.19c-0.21-0.01-1.12-0.04-2.31,0.13
		C74.36,49.55,74.03,49.61,73.79,49.66z"/>
	<path class="st5" d="M84.14,47.96c0.75,0.04,0.87,0.09,1.35,0.11c0.41,0.02,1.43,0.02,2.47-0.33c0.76-0.26,1.26-0.63,2.27-1.37
		c1.08-0.79,1.24-1.1,1.91-1.26c0.76-0.17,1.43,0.02,1.75,0.11c0.28,0.08,1.07,0.32,1.67,0.96c0.62,0.66,0.7,1.4,0.8,2.29
		c0.02,0.22,0.2,2.25-0.99,4.32c-0.49,0.85-0.87,1.11-1.23,1.15c-0.39,0.04-0.7-0.19-0.95-0.37c-0.79-0.55-1.69-0.96-2.47-1.52
		c-0.68-0.49-1.84-0.71-4.14-1.15c-3.12-0.59-3.04-0.35-5.61-0.85c-2.2-0.43-2.85-0.72-4.41-0.74c-1.29-0.01-2.35,0.17-3.06,0.33
		c0.28-0.69,0.56-1.38,0.84-2.07c0.4-0.04,1.01-0.08,1.75-0.07c0.79,0,1.16,0.05,2.62,0.18c2.04,0.18,3.06,0.27,3.66,0.26
		C82.78,47.95,83.32,47.92,84.14,47.96z"/>
	<path class="st6" d="M94.08,45.04c0.55-0.3,1.15-0.6,1.79-0.89c1.92-0.85,3.73-1.36,5.29-1.66"/>
	<path class="st6" d="M95.12,52.87c0.25,0.09,0.62,0.21,1.07,0.26c1.29,0.14,2.32-0.36,2.74-0.55c1.62-0.76,3.4-1.22,5.05-1.92
		c1.16-0.5,2.88-1.19,5.05-1.92"/>
	<path class="st6" d="M117.75,45.35c0.37-0.17,0.9-0.42,1.51-0.78c0.8-0.46,1.37-0.87,3.14-2.25c1.62-1.27,2.44-1.91,2.98-2.4
		c0.79-0.71,0.66-0.67,2.11-2.03c1.14-1.07,1.71-1.61,2.39-2.14c0.68-0.54,0.83-0.59,2.07-1.55c0.11-0.09-0.02,0.01,1.51-1.26
		c0.72-0.6,1.11-0.92,1.31-1.48c0.06-0.16,0.27-0.73,0-0.96c-0.08-0.07-0.29-0.19-1.11,0.07c-1.07,0.35-1.76,0.9-1.79,0.92
		c-0.13,0.1,1.74-1.39-3.98,2.73c-1.18,0.85-1.42,1.03-1.95,1.26c-0.86,0.36-1.47,0.41-2.51,0.59c-0.14,0.02-1.23,0.29-3.42,0.81
		c-2.65,0.64-6.29,1.72-8.63,2.44"/>
	<path class="st3" d="M94.02,33c0.21,0.4,0.42,0.8,0.64,1.2l5.28,6.8l6.32,5.02l6.51,4.98c1.39,0.85,3.16,1.81,5.29,2.71
		c2.92,1.24,5.36,1.86,6.54,2.14c4.28,1,7.91,1.1,10.16,1.05c4.37-0.1,7.7-0.89,9.18-1.28c2.48-0.66,1.32-0.62,6.6-2.41
		c0,0,1.99-0.68,4.5-2.52c0.36-0.27,0.97-0.74,0.92-1.33c-0.03-0.33-0.25-0.57-0.42-0.72c-2.66,0.3-4.69,0.67-6.08,0.96
		c-0.63,0.13-1.58,0.34-3.37,0.71c-1.34,0.28-2.1,0.43-3.05,0.6c-0.36,0.07-2.15,0.39-3.61,0.57c-1.37,0.17-4.12,0.49-7.54,0.09
		c-2.65-0.31-4.65-0.94-5.54-1.24c-3.43-1.17-5.72-2.74-7.28-3.83c-1.56-1.09-2.7-2.13-4.98-4.21c-0.74-0.68-2.93-2.69-7.19-7.05
		c-1.39-1.42-3.25-3.36-5.44-5.7c-0.2,0.22-0.5,0.53-0.88,0.87c-0.53,0.48-1.35,1.19-2.61,1.77c-0.5,0.23-1.46,0.66-2.81,0.79
		C94.7,33.01,94.31,33.01,94.02,33z"/>
	<g>
		<g>
			<path d="M94.08,33.58c2.16,0.51,4.3,1.08,6.42,1.73c0.2,0.06,0.5-0.04,0.68-0.13c0.09-0.05,0.33-0.18,0.12-0.25
				c-2.12-0.64-4.26-1.22-6.42-1.73c-0.21-0.05-0.49,0.03-0.68,0.13C94.12,33.38,93.86,33.53,94.08,33.58L94.08,33.58z"/>
		</g>
	</g>
	<g>
		<g>
			<path d="M95.14,35.38c2.2,0.56,4.39,1.19,6.55,1.89c0.22,0.07,0.49,0.03,0.69-0.1c0.11-0.06,0.32-0.29,0.09-0.36
				c-2.22-0.72-4.46-1.37-6.73-1.95c-0.21-0.05-0.53,0.04-0.69,0.19C94.9,35.19,94.94,35.33,95.14,35.38L95.14,35.38z"/>
		</g>
	</g>
	<g>
		<g>
			<path d="M96.55,37.56c2.36,0.66,4.69,1.4,7,2.23c0.2,0.07,0.44,0.01,0.63-0.06c0.03-0.01,0.44-0.21,0.29-0.27
				c-2.34-0.84-4.72-1.6-7.12-2.28c-0.21-0.06-0.5,0.04-0.68,0.13C96.58,37.36,96.34,37.5,96.55,37.56L96.55,37.56z"/>
		</g>
	</g>
	<g>
		<g>
			<path d="M98.54,39.88c2.39,0.56,4.76,1.19,7.12,1.89c0.22,0.07,0.53-0.01,0.69-0.19c0.14-0.16,0.1-0.36-0.11-0.42
				c-2.35-0.7-4.73-1.33-7.12-1.89c-0.23-0.05-0.53,0-0.69,0.19C98.29,39.61,98.31,39.83,98.54,39.88L98.54,39.88z"/>
		</g>
	</g>
	<g>
		<g>
			<path d="M100.49,42.07c2.3,0.45,4.59,0.96,6.87,1.53c0.21,0.05,0.49-0.04,0.68-0.13c0.08-0.04,0.33-0.18,0.13-0.23
				c-2.27-0.57-4.56-1.08-6.87-1.53c-0.22-0.04-0.49,0.04-0.68,0.13C100.54,41.87,100.28,42.03,100.49,42.07L100.49,42.07z"/>
		</g>
	</g>
	<g>
		<g>
			<path d="M103.42,44.42c2.05,0.33,4.1,0.71,6.13,1.13c0.49,0.1,0.98-0.59,0.34-0.72c-2.04-0.42-4.08-0.8-6.13-1.13
				c-0.23-0.04-0.54,0.08-0.64,0.3C103.02,44.22,103.21,44.38,103.42,44.42L103.42,44.42z"/>
		</g>
	</g>
	<g>
		<g>
			<path d="M105.66,46.3c2.07,0.33,4.13,0.71,6.18,1.13c0.22,0.05,0.53-0.02,0.69-0.19c0.14-0.14,0.12-0.31-0.1-0.36
				c-2.05-0.42-4.11-0.8-6.18-1.13c-0.23-0.04-0.52,0.02-0.69,0.19C105.43,46.08,105.44,46.26,105.66,46.3L105.66,46.3z"/>
		</g>
	</g>
	<g>
		<g>
			<path d="M108.51,48.48c2.03,0.25,4.06,0.54,6.08,0.87c0.43,0.07,1.01-0.52,0.36-0.63c-2.02-0.33-4.05-0.61-6.08-0.87
				c-0.21-0.03-0.54,0.08-0.64,0.28C108.11,48.35,108.32,48.46,108.51,48.48L108.51,48.48z"/>
		</g>
	</g>
	<g>
		<g>
			<path d="M111.25,50.49c2.04,0.24,4.08,0.52,6.11,0.84c0.23,0.04,0.54-0.08,0.63-0.31c0.09-0.23-0.09-0.41-0.31-0.45
				c-2.03-0.31-4.07-0.59-6.11-0.84c-0.23-0.03-0.54,0.07-0.63,0.31C110.85,50.27,111.03,50.46,111.25,50.49L111.25,50.49z"/>
		</g>
	</g>
	<g>
		<g>
			<path d="M114.93,52.51c1.7,0.16,3.39,0.35,5.09,0.56c0.22,0.03,0.51-0.05,0.69-0.19c0.15-0.12,0.13-0.23-0.07-0.26
				c-1.69-0.21-3.39-0.4-5.09-0.56c-0.23-0.02-0.51,0.05-0.69,0.19C114.71,52.36,114.73,52.49,114.93,52.51L114.93,52.51z"/>
		</g>
	</g>
	<g>
		<g>
			<path d="M118.13,54.07c1.7,0.16,3.39,0.35,5.09,0.56c0.21,0.03,0.54-0.08,0.64-0.28c0.11-0.21-0.1-0.3-0.27-0.32
				c-1.69-0.21-3.39-0.4-5.09-0.56c-0.21-0.02-0.54,0.08-0.64,0.28C117.74,53.96,117.95,54.05,118.13,54.07L118.13,54.07z"/>
		</g>
	</g>
	<g>
		<g>
			<path d="M121.97,55.54c1.66,0.16,3.32,0.34,4.98,0.55c0.23,0.03,0.51-0.01,0.69-0.19c0.13-0.13,0.13-0.33-0.1-0.36
				c-1.73-0.22-3.46-0.41-5.2-0.58c-0.2-0.02-0.54,0.08-0.64,0.27C121.59,55.44,121.81,55.52,121.97,55.54L121.97,55.54z"/>
		</g>
	</g>
	<polygon class="st5" points="73.67,25.1 74.03,26.97 74.9,29.08 76.5,30.85 78.19,32.11 79.43,32.88 81.81,34.26 83.36,35.12 
		84.37,35.12 85.05,33.91 86.38,31.22 86.97,28.63 87.11,24.38 85.87,20.51 84.46,16.6 83.21,14.18 84.96,15.28 87.61,16.86 
		89.94,18.85 91.82,21.06 93.56,24.25 94.05,26.54 94.29,28.24 93.65,30.58 93.46,31.64 94.02,33 95.84,32.62 98.17,31.69 
		99.77,30.85 101.24,29.43 102.08,28.41 101.74,27.73 99.89,26.78 97.69,24.89 93.88,21.02 91.32,18.17 86.24,13.65 83.75,12.12 
		82.61,10.91 81.76,10.06 81.26,10.06 81.17,10.5 81.17,12.39 79.91,15.52 78.03,17.81 76.09,19.53 75.22,20.89 74.22,23.1 	"/>
	<g id="pepper1_5_">
		<path class="st6" d="M81.21,9.78c-0.54,0.19-0.09,1.48-0.56,3.33c-0.46,1.81-1.54,3.08-2.07,3.7c-1.12,1.32-1.48,1.1-2.62,2.44
			c-0.48,0.57-1.45,1.72-1.99,3.47c-0.22,0.72-0.66,2.21-0.24,4.07c0.35,1.55,1.13,2.59,1.59,3.18c0.95,1.24,1.99,1.95,2.7,2.44
			c1.38,0.94,2.08,1.06,3.1,1.63c1.14,0.63,3.56,2.25,3.82,1.03c0.27-1.26,0.82-1.71,1.43-3.03c0.77-1.69,0.87-3.14,0.95-4.44
			c0.03-0.49,0.13-2.31-0.56-5.17c-0.46-1.93-1.39-4.81-3.42-8.06c0.81,0.43,1.86,1.03,3.02,1.85c0.89,0.63,2.43,1.73,3.98,3.47
			c1.35,1.52,2.3,2.59,2.86,4.29c0.31,0.94,1.25,3.75,0.32,6.06c-0.14,0.35-0.54,1.21-0.24,2.14c0.17,0.54,0.52,0.93,0.8,1.18
			c0.28,0.44,0.67,1.05,1.15,1.76c0.39,0.57,2.06,3,3.88,5.04c1.77,2,3.3,3.22,6.02,5.38c2.82,2.23,4.87,3.86,7.4,5.38
			c2.22,1.34,7.82,4.63,15.99,5.71c7.3,0.96,13.04-0.32,15.21-0.89c5.44-1.41,9.42-3.7,11.81-5.32c0.05-0.04,0.49-0.42,0.42-1
			c-0.05-0.41-0.34-0.66-0.42-0.72c-0.48,0.05-1.23,0.15-2.15,0.28c-3.59,0.52-5.56,1.06-8.65,1.66c-2.52,0.49-3.94,0.77-5.73,0.94
			c-2.43,0.23-6.61,0.6-11.51-0.83c-4.36-1.27-7.31-3.38-8.77-4.44c-1.18-0.86-2.02-1.61-3.46-2.88c-2.77-2.46-2.74-2.79-5.85-5.77
			c-3.11-2.98-4.86-4.29-7.4-7.48c-0.2-0.26-0.37-0.47-0.48-0.61c0.09-0.06,0.48-0.33,0.6-0.83c0.01-0.06,0.12-0.56-0.18-1
			c-0.31-0.45-0.82-0.48-1.43-0.72c-0.57-0.22-0.98-0.6-1.79-1.33c-2.47-2.25-4.35-4.49-4.35-4.49c-2.2-2.62-4.27-4.55-5.19-5.38
			c-4.29-3.88-4.32-2.67-6.56-5.1C82.37,10.4,81.66,9.62,81.21,9.78z"/>
		<path class="st6" d="M84.17,35.65c-0.01-0.25-0.02-0.62-0.04-1.07c-0.01-0.18-0.07-1.3-0.16-1.93c-0.18-1.28-0.72-2.26-1.42-3.52
			c-0.55-0.99-0.71-1.07-1.18-2.03c-0.42-0.87-0.65-1.36-0.75-2.07c-0.15-1.13,0.16-2.09,0.24-2.31c0.24-0.71,0.52-0.99,0.63-1.76
			c0.07-0.49,0.04-0.91,0-1.17"/>
		<path class="st6" d="M94.05,33.06c0.39,0.01,0.76,0,1.11-0.04c3.66-0.37,6.1-3.09,7.12-4.4"/>
	</g>
	<g>
		<g>
			<g>
				<path class="st3" d="M18.22,103.34v0.3c1.09,1.14,1.93,2.48,3.11,3.54c0.42,0.38,0.86,0.73,1.26,1.12
					c0.35,0.34,0.78,0.76,0.9,1.23c0.15,0.62-0.45,1-0.78,1.45c-0.45,0.64-0.99,1.22-1.52,1.81c-0.54,0.61-1.06,1.23-1.43,1.94
					c-0.37,0.71-0.64,1.47-0.84,2.23c-0.2,0.75-0.32,1.52-0.4,2.29h20.03v-15.92H18.22z"/>
				<path d="M26.46,113.39c4.03,1.96,8.07,3.92,12.1,5.87c0-2,0-3.99,0-5.99c-0.65-0.02-1.55-0.04-2.62-0.05
					c-0.69-0.01-2.98-0.03-6.07,0.05C28.97,113.29,27.81,113.33,26.46,113.39z"/>
				<path class="st3" d="M205.91,112.53v0.3c-1.09,1.14-1.93,2.48-3.11,3.54c-0.42,0.38-0.86,0.73-1.26,1.12
					c-0.35,0.34-0.78,0.76-0.9,1.23c-0.15,0.62,0.45,1,0.78,1.45c0.45,0.64,0.99,1.22,1.52,1.81c0.54,0.61,1.06,1.23,1.43,1.94
					c0.37,0.71,0.64,1.47,0.84,2.23c0.2,0.75,0.32,1.52,0.4,2.29h-20.03v-15.92H205.91z"/>
				<g>
					<path class="st3" d="M26.46,113.39l0.16-18.8c6.95-0.3,17.39-0.35,29.87,1.19c22.17,2.75,37.73,8.95,42.71,10.74
						c17.13,6.16,46.05,9.48,97.63-3.88l0.07,18.8c-51.64,13.36-80.61,10.04-97.76,3.88c-4.99-1.79-20.57-7.99-42.77-10.74
						C43.87,113.03,33.42,113.09,26.46,113.39z"/>
				</g>
				<polygon points="185.57,128.44 185.57,124.19 187.07,123.85 190.74,122.98 195.29,121.86 196.89,121.45 				"/>
			</g>
			<rect x="24.94" y="112.56" class="st3" width="1.1" height="2.14"/>
		</g>
		<rect x="197.23" y="120.48" class="st3" width="1.65" height="2.64"/>
	</g>
	<g>
		<path id="SVGID_x5F_1_x5F_" class="st8" d="M10.09,109.22c9.42-0.53,20.19-0.62,32.01,0.19c28.85,1.98,48.6,8.46,57.9,10.94
			c20.1,5.36,52.04,8.38,102.5-4.05"/>
		<text>		<textPath  xlink:href="#SVGID_x5F_1_x5F_" startOffset="14.0627%">
<tspan  style="fill:#FFFFFF; font-family:'HelloVintage'; font-size:14.5334px; letter-spacing:2.47;">Raw Fermented Hot Sauce</tspan>		</textPath>
</text>
	</g>
</g>
</svg>
