<?xml version="1.0" encoding="utf-8"?>
<!-- Generator: Adobe Illustrator 24.2.1, SVG Export Plug-In . SVG Version: 6.00 Build 0)  -->
<svg version="1.1" id="Layer_1" xmlns="http://www.w3.org/2000/svg" xmlns:xlink="http://www.w3.org/1999/xlink" x="0px" y="0px"
	 viewBox="0 0 288 310.45" style="enable-background:new 0 0 288 310.45;" xml:space="preserve">
<style type="text/css">
	.st0{fill:#FCFCFC;}
</style>
<g>
	<g>
		<path class="st0" d="M136.81,126.63c5.01,0,9.23,3.81,9.23,9.14c0,5.35-4.19,9.16-9.23,9.16h-5.3v-18.3H136.81z M136.32,141.2
			c3.08,0,5.19-2.35,5.21-5.41c0-3.06-2.11-5.43-5.21-5.43h-0.64v10.85H136.32z"/>
		<path class="st0" d="M160.1,130.28h-6.3v3.64h6.03v3.66h-6.03v3.68h6.3v3.66h-10.47v-18.3h10.47V130.28z"/>
		<path class="st0" d="M176.67,128.02l-1.69,3.33c0,0-1.82-1.26-3.7-1.26c-1.42,0-2.17,0.64-2.17,1.64c0,1.02,1.73,1.75,3.81,2.64
			c2.04,0.86,4.28,2.59,4.28,4.99c0,4.37-3.33,5.9-6.9,5.9c-4.28,0-6.88-2.42-6.88-2.42l2.08-3.5c0,0,2.44,2.06,4.48,2.06
			c0.91,0,2.64-0.09,2.64-1.8c0-1.33-1.95-1.93-4.13-3.02c-2.2-1.09-3.48-2.79-3.48-4.7c0-3.42,3.02-5.59,5.97-5.59
			C174.32,126.29,176.67,128.02,176.67,128.02z"/>
		<path class="st0" d="M185.08,144.92h-4.17v-18.3h4.17V144.92z"/>
		<path class="st0" d="M206.04,138.65c-1,4.64-4.86,6.61-8.45,6.61c-4.92,0-8.92-4.24-8.92-9.47c0-5.26,3.77-9.49,8.92-9.49
			c3.22,0,5.46,1.2,7.05,3.13l-2.73,2.99c-1.06-1.71-2.46-2.35-4.08-2.35c-2.57,0-4.66,2.55-4.66,5.72c0,3.1,2.08,5.63,4.66,5.63
			c2,0,3.97-1.29,3.97-3.53h-4.21v-3.22h8.45V138.65z"/>
		<path class="st0" d="M213.81,144.92h-4.17v-18.3h4.17l7.27,11.36h0.04v-11.36h4.17v18.3h-4.17l-7.27-11.36h-0.04V144.92z"/>
		<path class="st0" d="M144.84,166.64l1.77,3.55c0,0-2.04,1.69-6.01,1.69c-5.17,0-9.91-4.21-9.91-9.45c0-5.26,4.72-9.51,9.91-9.51
			c3.97,0,6.01,1.69,6.01,1.69l-1.77,3.55c0,0-1.46-1.13-3.59-1.13c-4.19,0-6.03,2.93-6.03,5.37c0,2.46,1.84,5.39,6.03,5.39
			C143.38,167.77,144.84,166.64,144.84,166.64z"/>
		<path class="st0" d="M159.86,156.9h-6.3v3.64h6.03v3.66h-6.03v3.68h6.3v3.66h-10.47v-18.3h10.47V156.9z"/>
		<path class="st0" d="M167.6,171.54h-4.17v-18.3h4.17l7.27,11.36h0.04v-11.36h4.17v18.3h-4.17l-7.27-11.36h-0.04V171.54z"/>
		<path class="st0" d="M180.71,153.25h12.86v3.66h-4.35v14.64h-4.17V156.9h-4.35V153.25z"/>
		<path class="st0" d="M206.73,156.9h-6.3v3.64h6.03v3.66h-6.03v3.68h6.3v3.66h-10.47v-18.3h10.47V156.9z"/>
		<path class="st0" d="M216.85,153.25c3.39,0,5.97,1.84,5.97,5.43c0,2.75-1.51,4.59-3.75,5.3l6.3,7.56h-5.3l-5.59-7.23v7.23h-4.17
			v-18.3H216.85z M214.96,161.36c1.57,0,3.46-0.11,3.46-2.4c0-2.28-1.89-2.4-3.46-2.4h-0.49v4.79H214.96z"/>
	</g>
	<g>
		<path class="st0" d="M217.27,182.94c-0.7,2.15-1.45,4.27-2.3,6.28c-4.86,11.51-11.81,21.21-20.65,28.85
			c-8.91,7.69-19.8,13.48-32.37,17.22c-12.73,3.77-27.06,5.69-42.59,5.69c-7.5,0-16.1-0.31-25.57-0.93
			c-8.36-0.55-16.47-1.64-24.16-3.26V59.67c7.7-1.6,15.89-2.65,24.4-3.12c9.65-0.54,18.35-0.81,25.87-0.81
			c15.36,0,29.56,1.83,42.21,5.43c12.49,3.56,23.34,9.17,32.24,16.68c8.84,7.47,15.78,17.08,20.62,28.57
			c0.97,2.3,1.81,4.72,2.59,7.2h7.32c-0.99-3.46-2.15-6.77-3.47-9.92c-5.28-12.51-12.87-23-22.56-31.19
			c-9.66-8.15-21.38-14.23-34.83-18.06c-13.27-3.78-28.12-5.7-44.12-5.7c-7.64,0-16.48,0.27-26.26,0.82
			c-9.92,0.55-19.43,1.86-28.29,3.88l-2.71,0.62v188.31l2.71,0.62c8.84,2.02,18.25,3.37,27.98,4.01c9.62,0.63,18.38,0.95,26.03,0.95
			c16.2,0,31.2-2.01,44.58-5.98c13.53-4.02,25.29-10.29,34.95-18.63c9.67-8.34,17.25-18.91,22.53-31.42c1.21-2.87,2.26-5.88,3.19-9
			H217.27z"/>
	</g>
	<g>
		<path class="st0" d="M200.82,182.94c-3.88,9.39-9.36,17.33-16.32,23.59c-7.11,6.4-15.81,11.22-25.84,14.32
			c-10.17,3.14-21.62,4.74-34.03,4.74c-6,0-12.89-0.26-20.47-0.78c-6.62-0.45-13.04-1.35-19.13-2.67V74.36
			c6.1-1.31,12.59-2.18,19.33-2.56c7.74-0.45,14.71-0.67,20.71-0.67c12.27,0,23.62,1.52,33.73,4.52
			c9.97,2.96,18.63,7.63,25.73,13.88c7.06,6.22,12.61,14.24,16.49,23.81c0.04,0.09,0.07,0.2,0.11,0.29h6.52
			c-0.31-0.87-0.62-1.74-0.95-2.58c-4.24-10.47-10.34-19.25-18.12-26.11c-7.78-6.84-17.21-11.93-28.03-15.15
			c-10.67-3.17-22.61-4.77-35.47-4.77c-6.12,0-13.21,0.23-21.06,0.68c-7.97,0.46-15.62,1.55-22.74,3.25l-2.35,0.56V227l2.35,0.56
			c7.11,1.7,14.67,2.83,22.48,3.36c7.72,0.53,14.75,0.8,20.89,0.8c13.02,0,25.08-1.69,35.84-5.01c10.88-3.37,20.35-8.63,28.12-15.62
			c7.77-6.99,13.85-15.84,18.09-26.3c0.24-0.6,0.45-1.23,0.68-1.84H200.82z"/>
	</g>
	<g>
		<path class="st0" d="M184.82,182.94c-2.61,4.98-5.82,9.34-9.61,12.99c-5.41,5.21-12.03,9.13-19.66,11.65
			c-7.74,2.56-16.46,3.86-25.92,3.86c-4.58,0-9.84-0.21-15.64-0.64c-4.98-0.36-9.81-1.08-14.4-2.13V87.88
			c4.59-1.05,9.47-1.73,14.54-2.05c5.91-0.37,11.23-0.55,15.83-0.55c9.35,0,17.99,1.24,25.69,3.68c7.58,2.4,14.17,6.2,19.57,11.28
			c3.93,3.7,7.24,8.19,9.89,13.38h5.81c-3.1-6.74-7.15-12.52-12.12-17.2c-5.99-5.63-13.25-9.82-21.58-12.46
			c-8.21-2.61-17.38-3.93-27.27-3.93c-4.7,0-10.14,0.19-16.15,0.56c-6.13,0.38-12.01,1.28-17.48,2.67l-1.97,0.5v128.99l1.97,0.5
			c5.46,1.39,11.28,2.32,17.28,2.76c5.92,0.43,11.31,0.65,16.02,0.65c10.01,0,19.29-1.39,27.56-4.12
			c8.38-2.77,15.67-7.1,21.65-12.85c4.81-4.63,8.77-10.26,11.83-16.77H184.82z"/>
	</g>
	<g>
		<path class="st0" d="M172.04,182.94c-0.62,0-1.25-0.01-1.89-0.02c-0.89,1.18-1.84,2.29-2.83,3.32c-3.97,4.12-8.82,7.22-14.4,9.22
			c-5.68,2.03-12.07,3.05-19,3.05c-3.36,0-7.23-0.17-11.51-0.51c-3.6-0.28-7.09-0.84-10.41-1.65v-96.12
			c3.32-0.81,6.85-1.34,10.51-1.58c4.35-0.29,8.27-0.44,11.66-0.44c6.86,0,13.2,0.98,18.84,2.91c5.55,1.9,10.37,4.9,14.34,8.92
			c1.1,1.12,2.12,2.33,3.09,3.62c0.54-0.01,1.09-0.05,1.62-0.05h3.64c-1.56-2.44-3.3-4.67-5.24-6.64
			c-4.45-4.51-9.84-7.87-16.04-9.99c-6.1-2.09-12.91-3.15-20.25-3.15c-3.49,0-7.5,0.15-11.95,0.45c-4.55,0.3-8.92,1.02-12.98,2.14
			l-1.6,0.44V199.7l1.6,0.44c4.05,1.12,8.37,1.86,12.83,2.21c4.39,0.34,8.38,0.52,11.85,0.52c7.43,0,14.32-1.11,20.47-3.3
			c6.23-2.22,11.64-5.69,16.08-10.3c1.83-1.9,3.49-4.02,4.98-6.33H172.04z"/>
	</g>
</g>
</svg>
